HIERARCHY
ROOT Hips
{
	OFFSET 0.00000 0.00000 0.00000
	CHANNELS 6 Xposition Yposition Zposition Zrotation Yrotation Xrotation 
	JOINT LHipJoint
	{
		OFFSET 0 0 0
		CHANNELS 3 Zrotation Yrotation Xrotation
		JOINT LeftUpLeg
		{
			OFFSET 1.56857 -1.73443 1.15205
			CHANNELS 3 Zrotation Yrotation Xrotation
			JOINT LeftLeg
			{
				OFFSET 2.39362 -6.57643 0.00000
				CHANNELS 3 Zrotation Yrotation Xrotation
				JOINT LeftFoot
				{
					OFFSET 2.50952 -6.89485 0.00000
					CHANNELS 3 Zrotation Yrotation Xrotation
					JOINT LeftToeBase
					{
						OFFSET 0.17171 -0.47178 1.88682
						CHANNELS 3 Zrotation Yrotation Xrotation
						End Site
						{
							OFFSET 0.00000 -0.00000 0.98146
						}
					}
				}
			}
		}
	}
	JOINT RHipJoint
	{
		OFFSET 0 0 0
		CHANNELS 3 Zrotation Yrotation Xrotation
		JOINT RightUpLeg
		{
			OFFSET -1.28153 -1.73443 1.15205
			CHANNELS 3 Zrotation Yrotation Xrotation
			JOINT RightLeg
			{
				OFFSET -2.26861 -6.23296 0.00000
				CHANNELS 3 Zrotation Yrotation Xrotation
				JOINT RightFoot
				{
					OFFSET -2.54143 -6.98254 0.00000
					CHANNELS 3 Zrotation Yrotation Xrotation
					JOINT RightToeBase
					{
						OFFSET -0.23309 -0.64041 1.93119
						CHANNELS 3 Zrotation Yrotation Xrotation
						End Site
						{
							OFFSET -0.00000 -0.00000 1.02013
						}
					}
				}
			}
		}
	}
	JOINT LowerBack
	{
		OFFSET 0 0 0
		CHANNELS 3 Zrotation Yrotation Xrotation
		JOINT Spine
		{
			OFFSET -0.07096 2.10460 -0.27878
			CHANNELS 3 Zrotation Yrotation Xrotation
			JOINT Spine1
			{
				OFFSET -0.00826 2.13662 -0.08279
				CHANNELS 3 Zrotation Yrotation Xrotation
				JOINT Neck
				{
					OFFSET 0 0 0
					CHANNELS 3 Zrotation Yrotation Xrotation
					JOINT Neck1
					{
						OFFSET 0.03239 1.77799 0.24435
						CHANNELS 3 Zrotation Yrotation Xrotation
						JOINT Head
						{
							OFFSET 0.01026 1.74194 -0.49664
							CHANNELS 3 Zrotation Yrotation Xrotation
							End Site
							{
								OFFSET 0.00170 1.83057 -0.19653
							}
						}
					}
				}
				JOINT LeftShoulder
				{
					OFFSET 0 0 0
					CHANNELS 3 Zrotation Yrotation Xrotation
					JOINT LeftArm
					{
						OFFSET 3.19178 1.35907 -0.31412
						CHANNELS 3 Zrotation Yrotation Xrotation
						JOINT LeftForeArm
						{
							OFFSET 4.85247 -0.00000 -0.00000
							CHANNELS 3 Zrotation Yrotation Xrotation
							JOINT LeftHand
							{
								OFFSET 3.55584 -0.00000 0.00000
								CHANNELS 3 Zrotation Yrotation Xrotation
								JOINT LeftFingerBase
								{
									OFFSET 0 0 0
									CHANNELS 3 Zrotation Yrotation Xrotation
									JOINT LeftHandIndex1
									{
										OFFSET 0.69320 -0.00000 0.00000
										CHANNELS 3 Zrotation Yrotation Xrotation
										End Site
										{
											OFFSET 0.55888 -0.00000 0.00000
										}
									}
								}
								JOINT LThumb
								{
									OFFSET 0 0 0
									CHANNELS 3 Zrotation Yrotation Xrotation
									End Site
									{
										OFFSET 0.56741 -0.00000 0.56741
									}
								}
							}
						}
					}
				}
				JOINT RightShoulder
				{
					OFFSET 0 0 0
					CHANNELS 3 Zrotation Yrotation Xrotation
					JOINT RightArm
					{
						OFFSET -3.28999 1.24191 -0.26899
						CHANNELS 3 Zrotation Yrotation Xrotation
						JOINT RightForeArm
						{
							OFFSET -4.64462 -0.00000 0.00000
							CHANNELS 3 Zrotation Yrotation Xrotation
							JOINT RightHand
							{
								OFFSET -3.40703 -0.00000 0.00000
								CHANNELS 3 Zrotation Yrotation Xrotation
								JOINT RightFingerBase
								{
									OFFSET 0 0 0
									CHANNELS 3 Zrotation Yrotation Xrotation
									JOINT RightHandIndex1
									{
										OFFSET -0.61958 -0.00000 0.00000
										CHANNELS 3 Zrotation Yrotation Xrotation
										End Site
										{
											OFFSET -0.49952 -0.00000 0.00000
										}
									}
								}
								JOINT RThumb
								{
									OFFSET 0 0 0
									CHANNELS 3 Zrotation Yrotation Xrotation
									End Site
									{
										OFFSET -0.50715 -0.00000 0.50715
									}
								}
							}
						}
					}
				}
			}
		}
	}
}
MOTION
Frames: 6
Frame Time: .0083333
47.9866 16.3889 -5.5206 -0.3409 176.4870 1.5640 0.0000 0.0000 0.0000 -9.1011 7.0372 -19.9907 6.5166 14.9109 47.0215 0.9720 0.4408 -18.7995 0.1564 2.5484 7.0238 0.0000 0.0000 0.0000 15.9107 -6.5772 4.3646 -5.6328 -14.0628 43.4895 -0.2299 3.2031 -8.5200 -0.0002 -0.1009 0.2771 -2.0262 3.6250 12.6046 -2.3951 5.3551 5.7266 -2.0609 3.0132 -0.9735 6.9789 7.8424 -17.3433 -3.6557 7.7804 37.5291 -1.6186 2.7310 17.0678 0.0000 0.0000 0.0000 -79.0493 10.4696 26.6316 23.0809 -34.1771 -7.1837 -0.0000 -0.0000 9.3286 8.6982 -24.4353 -3.6212 -7.1250 0.0000 -0.0000 -12.6816 5.7938 11.6319 0.0000 0.0000 0.0000 90.3063 -4.5447 17.2561 -13.2821 21.6991 -2.5566 0.0000 0.0000 14.2391 -8.9538 -36.7625 5.3870 7.1250 -0.0000 -0.0000 31.6277 -64.3647 -15.5703
47.9909 16.4179 -5.6436 -1.0660 177.2010 1.6211 0.0000 0.0000 0.0000 -9.1011 7.0372 -19.9907 6.5166 14.9109 47.0215 0.9720 0.4408 -18.7995 0.1564 2.5484 7.0238 0.0000 0.0000 0.0000 15.2235 -6.0337 2.8103 -6.2034 -14.6226 45.7926 -0.2162 4.0020 -8.3126 -0.0000 -0.0301 0.0826 -2.8084 3.4960 12.6667 -2.5242 5.1081 5.7117 -1.7353 2.8868 -1.0756 7.1107 8.0039 -17.3281 -3.8487 8.0988 37.3999 -1.6570 2.8663 17.0414 0.0000 -0.0000 0.0000 -78.3705 10.0272 26.9611 24.5382 -35.7283 -8.0187 -0.0000 -0.0000 8.2131 10.0169 -24.2633 -4.1514 -7.1250 0.0000 -0.0000 -11.8737 5.8230 10.8489 0.0000 -0.0000 0.0000 89.9937 -5.3505 17.7063 -13.4081 21.8822 -2.6034 0.0000 0.0000 13.7881 -7.7310 -37.8936 4.7663 7.1250 -0.0000 -0.0000 34.3423 -64.9510 -17.5173
47.9960 16.4478 -5.7658 -1.6245 177.9810 1.7180 0.0000 0.0000 0.0000 -9.1011 7.0372 -19.9907 6.5166 14.9109 47.0215 0.9720 0.4408 -18.7995 0.1564 2.5484 7.0238 0.0000 0.0000 0.0000 14.7149 -5.5706 1.1872 -6.7192 -15.0908 47.8041 -0.1976 4.8281 -8.0935 -0.0002 -0.0797 0.2188 -3.3320 3.3529 12.7015 -2.6610 4.8748 5.7101 -1.5587 2.7727 -1.1231 7.3116 8.1825 -17.4090 -4.0639 8.4279 37.2981 -1.7118 3.0132 17.0633 0.0000 0.0000 0.0000 -77.5568 9.2112 27.4158 25.8225 -37.0329 -8.7805 -0.0000 -0.0000 6.8354 11.4209 -23.7800 -4.6569 -7.1250 0.0000 -0.0000 -10.9980 6.1437 9.9473 0.0000 0.0000 0.0000 89.8058 -6.0800 18.0567 -13.5316 22.0611 -2.6496 0.0000 0.0000 13.6061 -7.0011 -38.8773 4.4075 7.1250 -0.0000 -0.0000 36.4395 -65.5248 -19.1926
48.0022 16.4756 -5.8849 -2.1733 178.8620 1.8847 0.0000 0.0000 0.0000 -9.1011 7.0372 -19.9907 6.5166 14.9109 47.0215 0.9720 0.4408 -18.7995 0.1564 2.5484 7.0238 0.0000 0.0000 0.0000 14.2365 -5.0579 -0.5013 -7.2126 -15.5083 49.6739 -0.2041 5.2952 -8.3074 -0.0016 -0.2563 0.7042 -3.9076 3.1505 12.6705 -2.7207 4.5541 5.7049 -1.2559 2.6101 -1.1453 7.4566 8.3866 -17.4178 -4.4190 8.8759 37.1378 -1.7961 3.1816 17.0539 0.0000 -0.0000 0.0000 -76.5857 8.4886 28.3954 27.2954 -38.4595 -9.6823 -0.0000 -0.0000 4.9140 12.6189 -23.2058 -5.0412 -7.1250 0.0000 -0.0000 -10.2370 6.5752 9.1483 0.0000 -0.0000 0.0000 89.4738 -6.7735 18.6384 -13.6563 22.2412 -2.6966 0.0000 0.0000 13.4314 -6.7772 -39.7257 4.3434 7.1250 -0.0000 -0.0000 37.9024 -66.1168 -20.5666
48.0093 16.5025 -6.0056 -2.6511 179.7800 2.0085 0.0000 0.0000 0.0000 -9.1011 7.0372 -19.9907 6.5166 14.9109 47.0215 0.9720 0.4408 -18.7995 0.1564 2.5484 7.0238 0.0000 0.0000 0.0000 13.8290 -4.5890 -2.0230 -7.6303 -15.8405 51.2200 -0.2200 5.4200 -8.6072 -0.0023 -0.3078 0.8457 -4.5143 2.9246 12.6630 -2.6563 4.1925 5.7053 -0.8024 2.4225 -1.1787 7.4825 8.6306 -17.3621 -4.7409 9.4122 36.9693 -1.8284 3.3731 17.0233 -0.0000 0.0000 0.0000 -76.3055 7.8094 28.2984 28.6828 -39.7373 -10.5573 -0.0000 -0.0000 4.1026 13.4432 -23.3402 -5.4098 -7.1250 0.0000 -0.0000 -9.7314 6.3416 8.7268 -0.0000 0.0000 0.0000 88.8729 -7.5292 19.3942 -13.7971 22.4439 -2.7502 0.0000 0.0000 13.6198 -5.3526 -39.6751 3.4232 7.1250 -0.0000 -0.0000 39.2599 -65.6648 -21.0036
48.0138 16.5311 -6.1296 -3.0550 180.6940 2.0096 0.0000 0.0000 0.0000 -9.1011 7.0372 -19.9907 6.5166 14.9109 47.0215 0.9720 0.4408 -18.7995 0.1564 2.5484 7.0238 0.0000 0.0000 0.0000 13.3404 -4.3615 -3.4449 -7.9698 -16.0970 52.4537 -0.2237 5.4470 -8.6759 -0.0036 -0.3858 1.0600 -4.7094 3.8047 12.7385 -2.5314 3.6105 5.8146 -0.4778 1.4008 -1.1677 7.6210 8.9008 -17.3377 -5.0271 9.9323 36.8266 -1.8653 3.5797 17.0231 0.0000 0.0000 0.0000 -75.5914 7.1378 28.5090 30.2415 -41.0995 -11.5681 -0.0000 -0.0000 2.9736 14.0926 -23.5803 -5.7348 -7.1250 0.0000 -0.0000 -9.3405 6.0197 8.4248 0.0000 0.0000 0.0000 88.3254 -8.2000 19.7434 -13.8620 22.5371 -2.7750 0.0000 0.0000 14.7057 -2.9290 -38.5181 1.8251 7.1250 -0.0000 -0.0000 40.0130 -64.1088 -20.0518
